# This file uses meters as units for non-parametric coordinates.

mtllib bucket_01.mtl
g default
v 10.750979 -24.886780 -18.621229
v -10.750969 -24.886780 -18.621235
v -21.501945 -24.886780 -0.000004
v -10.750976 -24.886780 18.621229
v 10.750973 -24.886780 18.621235
v 21.501945 -24.886780 -0.000000
v 12.331847 -12.111614 -21.359373
v -12.331838 -12.111614 -21.359379
v -24.663683 -12.111614 -0.000004
v -12.331844 -12.111614 21.359373
v 12.331841 -12.111614 21.359373
v 24.663683 -12.111614 -0.000000
v 12.701405 -12.111611 -21.999466
v -12.701396 -12.111611 -21.999474
v -25.402798 -12.111611 -0.000004
v -12.701401 -12.111611 21.999466
v 12.701399 -12.111611 21.999474
v 25.402798 -12.111611 -0.000000
v 14.671837 24.886780 -25.412357
v -14.671827 24.886780 -25.412365
v -29.343658 24.886780 -0.000005
v -14.671833 24.886780 25.412357
v 14.671829 24.886780 25.412357
v 29.343658 24.886780 -0.000000
v 12.741753 24.886780 -22.069355
v -12.741746 24.886780 -22.069363
v -25.483492 24.886780 -0.000004
v -12.741750 24.886780 22.069355
v 12.741746 24.886780 22.069355
v 25.483492 24.886780 -0.000000
v 9.768936 -13.463959 -16.920286
v -9.768929 -13.463959 -16.920292
v -19.537859 -13.463959 -0.000004
v -9.768932 -13.463959 16.920286
v 9.768929 -13.463959 16.920286
v 19.537859 -13.463959 -0.000000
v 13.258548 -8.048948 -22.964468
v -13.258539 -8.048948 -22.964478
v -26.517086 -8.048948 -0.000004
v -13.258545 -8.048948 22.964468
v 13.258543 -8.048948 22.964474
v 26.517086 -8.048948 -0.000000
v 12.856614 -8.048903 -22.268295
v 25.713219 -8.048903 -0.000000
v 12.856609 -8.048903 22.268303
v -12.856611 -8.048903 22.268295
v -25.713219 -8.048903 -0.000004
v -12.856605 -8.048903 -22.268307
v 14.179603 7.670249 -24.559780
v 28.359194 7.670249 -0.000000
v 14.179597 7.670249 24.559782
v -14.179598 7.670249 24.559780
v -28.359194 7.670249 -0.000004
v -14.179592 7.670249 -24.559788
v 14.792023 7.670273 -25.620520
v 29.584030 7.670273 0.000000
v 14.792015 7.670273 25.620523
v -14.792017 7.670273 25.620520
v -29.584030 7.670273 -0.000004
v -14.792011 7.670273 -25.620529
v 14.788310 11.565352 -25.614094
v 29.576611 11.565352 0.000000
v 14.788305 11.565352 25.614098
v -14.788307 11.565352 25.614094
v -29.576611 11.565352 -0.000004
v -14.788301 11.565352 -25.614103
v 14.320392 11.565369 -24.803637
v 28.640774 11.565369 -0.000000
v 14.320387 11.565369 24.803640
v -14.320390 11.565369 24.803637
v -28.640774 11.565369 -0.000004
v -14.320383 11.565369 -24.803646
vt 0.722960 0.979790
vt 0.730009 0.937190
vt 0.754723 0.941536
vt 0.748510 0.989398
vt 0.733850 0.887425
vt 0.758630 0.890826
vt 0.740153 0.836011
vt 0.651021 0.966057
vt 0.774636 0.788915
vt 0.764960 0.839676
vt 0.761005 0.736067
vt 0.786667 0.739064
vt 0.842888 0.997749
vt 0.837671 0.948574
vt 0.914102 0.942504
vt 0.919755 0.980201
vt 0.840061 0.900144
vt 0.914603 0.903754
vt 0.845966 0.852453
vt 0.855321 0.805307
vt 0.985355 0.969408
vt 0.918953 0.864884
vt 0.868743 0.758668
vt 0.955676 0.993674
vt 0.749752 0.990392
vt 0.755893 0.941788
vt 0.763779 0.943057
vt 0.758386 0.993450
vt 0.759777 0.890993
vt 0.767620 0.892061
vt 0.766100 0.839850
vt 0.775784 0.789087
vt 0.783639 0.790272
vt 0.773927 0.840935
vt 0.787871 0.739188
vt 0.795932 0.740109
vt 0.784912 0.790496
vt 0.797202 0.740308
vt 0.827717 0.745828
vt 0.814376 0.795961
vt 0.775203 0.841147
vt 0.804625 0.845874
vt 0.765040 0.943281
vt 0.768894 0.892255
vt 0.798374 0.896218
vt 0.795208 0.947845
vt 0.808668 0.690284
vt 0.844296 0.694499
vt 0.816223 0.796363
vt 0.829605 0.746287
vt 0.836872 0.748076
vt 0.823416 0.797828
vt 0.806483 0.846193
vt 0.813725 0.847254
vt 0.797122 0.948068
vt 0.800247 0.896452
vt 0.807527 0.897191
vt 0.804524 0.948552
vt 0.847006 0.693912
vt 0.855497 0.696239
vt 0.824866 0.798159
vt 0.838331 0.748486
vt 0.862908 0.756044
vt 0.849391 0.803554
vt 0.815185 0.847506
vt 0.839959 0.851209
vt 0.806028 0.948673
vt 0.808997 0.897362
vt 0.833964 0.899379
vt 0.831284 0.948642
vt 0.856952 0.697568
vt 0.885085 0.708731
vt 0.806392 1.002126
vt 0.835901 1.002584
vt 0.804580 1.002981
vt 0.795889 1.002432
vt 0.793571 1.001119
vt 0.759959 0.992886
vt 0.807328 0.689347
vt 0.926736 0.826860
vt 0.938598 0.790923
vt 0.979232 0.931678
vt 0.943547 0.918222
vt 0.956610 0.757830
vt 0.890044 0.715185
vt 0.798004 0.689526
vt 0.796478 0.690157
vt 0.768853 0.691185
vt 0.749695 0.784988
vt 0.683165 0.993621
vt 0.658551 0.924421
vt 0.698106 0.910108
vn 0.000000 -0.209574 -0.977793
vn 0.000000 -0.209574 -0.977793
vn 0.000000 -0.209574 -0.977793
vn 0.000000 -0.209574 -0.977793
vn -0.846793 -0.209574 -0.488897
vn -0.846793 -0.209574 -0.488897
vn -0.846793 -0.209574 -0.488897
vn -0.846793 -0.209574 -0.488897
vn -0.846794 -0.209574 0.488896
vn -0.846794 -0.209574 0.488896
vn -0.846794 -0.209574 0.488896
vn -0.846794 -0.209574 0.488896
vn -0.000000 -0.209573 0.977793
vn -0.000000 -0.209573 0.977793
vn -0.000000 -0.209573 0.977793
vn -0.000000 -0.209573 0.977793
vn 0.846793 -0.209574 0.488896
vn 0.846793 -0.209574 0.488896
vn 0.846793 -0.209574 0.488896
vn 0.846793 -0.209574 0.488897
vn 0.846794 -0.209574 -0.488896
vn 0.846794 -0.209574 -0.488896
vn 0.846794 -0.209574 -0.488896
vn 0.846794 -0.209574 -0.488896
vn 0.000000 -1.000000 -0.000005
vn 0.000000 -1.000000 -0.000005
vn 0.000000 -1.000000 -0.000005
vn 0.000000 -1.000000 -0.000005
vn -0.000004 -1.000000 -0.000002
vn -0.000004 -1.000000 -0.000002
vn -0.000004 -1.000000 -0.000002
vn -0.000004 -1.000000 -0.000002
vn -0.000004 -1.000000 0.000003
vn -0.000004 -1.000000 0.000003
vn -0.000004 -1.000000 0.000003
vn -0.000004 -1.000000 0.000003
vn -0.000000 -1.000000 0.000004
vn -0.000000 -1.000000 0.000004
vn -0.000000 -1.000000 0.000004
vn -0.000000 -1.000000 0.000004
vn 0.000004 -1.000000 0.000002
vn 0.000004 -1.000000 0.000002
vn 0.000004 -1.000000 0.000002
vn 0.000004 -1.000000 0.000002
vn 0.000004 -1.000000 -0.000003
vn 0.000004 -1.000000 -0.000003
vn 0.000004 -1.000000 -0.000003
vn 0.000004 -1.000000 -0.000003
vn 0.000000 1.000000 -0.000064
vn 0.000000 1.000000 -0.000064
vn 0.000000 1.000000 -0.000064
vn 0.000000 1.000000 -0.000064
vn -0.000056 1.000000 -0.000033
vn -0.000056 1.000000 -0.000033
vn -0.000056 1.000000 -0.000033
vn -0.000056 1.000000 -0.000033
vn -0.000056 1.000000 0.000032
vn -0.000056 1.000000 0.000032
vn -0.000056 1.000000 0.000032
vn -0.000056 1.000000 0.000032
vn -0.000000 1.000000 0.000065
vn -0.000000 1.000000 0.000065
vn -0.000000 1.000000 0.000065
vn -0.000000 1.000000 0.000065
vn 0.000056 1.000000 0.000032
vn 0.000056 1.000000 0.000032
vn 0.000056 1.000000 0.000032
vn 0.000056 1.000000 0.000032
vn 0.000056 1.000000 -0.000032
vn 0.000056 1.000000 -0.000032
vn 0.000056 1.000000 -0.000032
vn 0.000056 1.000000 -0.000032
vn 0.000000 1.000000 -0.000000
vn 0.000000 1.000000 -0.000000
vn 0.000000 1.000000 -0.000000
vn 0.000000 1.000000 -0.000000
vn 0.000000 1.000000 0.000000
vn 0.000000 1.000000 0.000000
vn 0.000000 1.000000 0.000000
vn 0.000000 1.000000 0.000000
vn 0.000000 1.000000 -0.000000
vn 0.000000 1.000000 -0.000000
vn 0.000000 1.000000 -0.000000
vn 0.000000 1.000000 -0.000000
vn 0.000000 1.000000 -0.000000
vn 0.000000 1.000000 -0.000000
vn 0.000000 1.000000 -0.000000
vn 0.000000 1.000000 -0.000000
vn 0.000000 1.000000 -0.000000
vn 0.000000 1.000000 -0.000000
vn 0.000000 1.000000 -0.000000
vn 0.000000 1.000000 -0.000000
vn 0.000000 1.000000 -0.000000
vn 0.000000 1.000000 -0.000000
vn 0.000000 1.000000 -0.000000
vn 0.000000 1.000000 -0.000000
vn -0.000000 0.133069 0.991107
vn -0.000000 0.133069 0.991107
vn -0.000000 0.133069 0.991107
vn -0.000000 0.133069 0.991107
vn 0.858324 0.133069 0.495553
vn 0.858324 0.133069 0.495553
vn 0.858324 0.133069 0.495553
vn 0.858324 0.133069 0.495553
vn 0.858324 0.133069 -0.495553
vn 0.858324 0.133069 -0.495553
vn 0.858324 0.133069 -0.495553
vn 0.858324 0.133069 -0.495553
vn 0.000000 0.133069 -0.991107
vn 0.000000 0.133069 -0.991107
vn 0.000000 0.133069 -0.991107
vn 0.000000 0.133069 -0.991107
vn -0.858324 0.133069 -0.495553
vn -0.858324 0.133069 -0.495553
vn -0.858324 0.133069 -0.495553
vn -0.858324 0.133069 -0.495553
vn -0.858324 0.133069 0.495553
vn -0.858324 0.133069 0.495553
vn -0.858324 0.133069 0.495553
vn -0.858324 0.133069 0.495553
vn 0.000000 -1.000000 0.000000
vn 0.000000 -1.000000 0.000000
vn 0.000000 -1.000000 0.000000
vn 0.000000 -1.000000 0.000000
vn 0.000000 -1.000000 -0.000000
vn 0.000000 -1.000000 -0.000000
vn 0.000000 -1.000000 -0.000000
vn 0.000000 -1.000000 -0.000000
vn 0.000000 1.000000 0.000000
vn 0.000000 1.000000 0.000000
vn 0.000000 1.000000 0.000000
vn 0.000000 1.000000 0.000000
vn 0.000000 1.000000 -0.000000
vn 0.000000 1.000000 -0.000000
vn 0.000000 1.000000 -0.000000
vn 0.000000 1.000000 -0.000000
vn 0.000000 -0.231100 -0.972930
vn 0.000000 -0.231100 -0.972930
vn 0.000000 -0.231100 -0.972930
vn 0.000000 -0.231100 -0.972930
vn -0.842582 -0.231100 -0.486465
vn -0.842582 -0.231100 -0.486465
vn -0.842582 -0.231100 -0.486465
vn -0.842582 -0.231100 -0.486465
vn -0.842582 -0.231099 0.486465
vn -0.842582 -0.231099 0.486465
vn -0.842582 -0.231099 0.486465
vn -0.842582 -0.231099 0.486465
vn -0.000000 -0.231099 0.972930
vn -0.000000 -0.231099 0.972930
vn -0.000000 -0.231099 0.972930
vn -0.000000 -0.231099 0.972930
vn 0.842582 -0.231099 0.486465
vn 0.842582 -0.231099 0.486465
vn 0.842582 -0.231099 0.486465
vn 0.842582 -0.231099 0.486465
vn 0.842582 -0.231100 -0.486465
vn 0.842582 -0.231100 -0.486465
vn 0.842582 -0.231100 -0.486465
vn 0.842582 -0.231100 -0.486465
vn 0.856968 -0.144252 -0.494770
vn 0.856968 -0.144252 -0.494770
vn 0.856968 -0.144252 -0.494770
vn 0.856968 -0.144252 -0.494770
vn 0.856968 -0.144252 0.494771
vn 0.856968 -0.144252 0.494771
vn 0.856968 -0.144252 0.494770
vn 0.856968 -0.144252 0.494771
vn -0.000000 -0.144252 0.989541
vn -0.000000 -0.144252 0.989541
vn -0.000000 -0.144252 0.989541
vn -0.000000 -0.144252 0.989541
vn -0.856968 -0.144252 0.494770
vn -0.856968 -0.144252 0.494770
vn -0.856968 -0.144252 0.494770
vn -0.856968 -0.144252 0.494770
vn -0.856968 -0.144252 -0.494771
vn -0.856968 -0.144252 -0.494771
vn -0.856968 -0.144252 -0.494771
vn -0.856968 -0.144252 -0.494771
vn 0.000000 -0.144252 -0.989541
vn 0.000000 -0.144252 -0.989541
vn 0.000000 -0.144252 -0.989541
vn 0.000000 -0.144252 -0.989541
vn 0.000020 -1.000000 -0.000011
vn 0.000020 -1.000000 -0.000011
vn 0.000020 -1.000000 -0.000011
vn 0.000020 -1.000000 -0.000011
vn 0.000020 -1.000000 0.000012
vn 0.000020 -1.000000 0.000012
vn 0.000020 -1.000000 0.000012
vn 0.000020 -1.000000 0.000012
vn -0.000000 -1.000000 0.000023
vn -0.000000 -1.000000 0.000023
vn -0.000000 -1.000000 0.000023
vn -0.000000 -1.000000 0.000023
vn -0.000020 -1.000000 0.000011
vn -0.000020 -1.000000 0.000011
vn -0.000020 -1.000000 0.000011
vn -0.000020 -1.000000 0.000011
vn -0.000020 -1.000000 -0.000012
vn -0.000020 -1.000000 -0.000012
vn -0.000020 -1.000000 -0.000012
vn -0.000020 -1.000000 -0.000012
vn 0.000000 -1.000000 -0.000023
vn 0.000000 -1.000000 -0.000023
vn 0.000000 -1.000000 -0.000023
vn 0.000000 -1.000000 -0.000023
vn 0.866024 0.001650 -0.499999
vn 0.866024 0.001650 -0.499999
vn 0.866024 0.001650 -0.499999
vn 0.866024 0.001650 -0.499999
vn 0.866024 0.001650 0.499999
vn 0.866024 0.001650 0.499999
vn 0.866024 0.001650 0.499999
vn 0.866024 0.001650 0.499999
vn -0.000000 0.001650 0.999999
vn -0.000000 0.001650 0.999999
vn -0.000000 0.001650 0.999999
vn -0.000000 0.001650 0.999999
vn -0.866024 0.001650 0.499999
vn -0.866024 0.001650 0.499999
vn -0.866024 0.001650 0.499999
vn -0.866024 0.001650 0.499999
vn -0.866024 0.001650 -0.499999
vn -0.866024 0.001650 -0.499999
vn -0.866024 0.001650 -0.499999
vn -0.866024 0.001650 -0.499999
vn 0.000000 0.001650 -0.999999
vn 0.000000 0.001650 -0.999999
vn 0.000000 0.001650 -0.999999
vn 0.000000 0.001650 -0.999999
vn 0.000017 1.000000 -0.000010
vn 0.000017 1.000000 -0.000010
vn 0.000017 1.000000 -0.000010
vn 0.000017 1.000000 -0.000010
vn 0.000017 1.000000 0.000010
vn 0.000017 1.000000 0.000010
vn 0.000017 1.000000 0.000010
vn 0.000017 1.000000 0.000010
vn -0.000000 1.000000 0.000021
vn -0.000000 1.000000 0.000021
vn -0.000000 1.000000 0.000021
vn -0.000000 1.000000 0.000021
vn -0.000017 1.000000 0.000010
vn -0.000017 1.000000 0.000010
vn -0.000017 1.000000 0.000010
vn -0.000017 1.000000 0.000010
vn -0.000017 1.000000 -0.000009
vn -0.000017 1.000000 -0.000009
vn -0.000017 1.000000 -0.000009
vn -0.000017 1.000000 -0.000009
vn 0.000000 1.000000 -0.000020
vn 0.000000 1.000000 -0.000020
vn 0.000000 1.000000 -0.000020
vn 0.000000 1.000000 -0.000020
vn 0.865123 -0.045647 -0.499479
vn 0.865123 -0.045647 -0.499479
vn 0.865123 -0.045647 -0.499479
vn 0.865123 -0.045647 -0.499479
vn 0.865123 -0.045647 0.499479
vn 0.865123 -0.045647 0.499479
vn 0.865123 -0.045647 0.499479
vn 0.865123 -0.045647 0.499479
vn 0.000000 -0.045647 0.998958
vn 0.000000 -0.045647 0.998958
vn 0.000000 -0.045647 0.998958
vn 0.000000 -0.045647 0.998958
vn -0.865123 -0.045647 0.499479
vn -0.865123 -0.045647 0.499479
vn -0.865123 -0.045647 0.499479
vn -0.865123 -0.045647 0.499479
vn -0.865123 -0.045647 -0.499479
vn -0.865123 -0.045647 -0.499479
vn -0.865123 -0.045647 -0.499479
vn -0.865123 -0.045647 -0.499479
vn 0.000000 -0.045647 -0.998958
vn 0.000000 -0.045647 -0.998958
vn 0.000000 -0.045647 -0.998958
vn 0.000000 -0.045647 -0.998958
s off
g geo_bucket_01
usemtl initialShadingGroup
f 1/11/1 2/88/2 8/87/3 7/12/4
f 2/1/5 3/2/6 9/3/7 8/4/8
f 3/2/9 4/5/10 10/6/11 9/3/12
f 4/5/13 5/7/14 11/10/15 10/6/16
f 5/7/17 6/89/18 12/9/19 11/10/20
f 6/89/21 1/11/22 7/12/23 12/9/24
f 7/12/25 8/87/26 14/86/27 13/35/28
f 8/4/29 9/3/30 15/26/31 14/25/32
f 9/3/33 10/6/34 16/29/35 15/26/36
f 10/6/37 11/10/38 17/31/39 16/29/40
f 11/10/41 12/9/42 18/32/43 17/31/44
f 12/9/45 7/12/46 13/35/47 18/32/48
f 37/36/49 38/79/50 48/47/51 43/38/52
f 38/28/53 39/27/54 47/43/55 48/78/56
f 39/27/57 40/30/58 46/44/59 47/43/60
f 40/30/61 41/34/62 45/41/63 46/44/64
f 41/34/65 42/33/66 44/37/67 45/41/68
f 42/33/69 37/36/70 43/38/71 44/37/72
f 19/63/73 20/72/74 26/85/75 25/23/76
f 20/74/77 21/70/78 27/14/79 26/13/80
f 21/70/81 22/69/82 28/17/83 27/14/84
f 22/69/85 23/66/86 29/19/87 28/17/88
f 23/66/89 24/64/90 30/20/91 29/19/92
f 24/64/93 19/63/94 25/23/95 30/20/96
f 25/23/97 26/85/98 32/84/99 31/81/100
f 26/13/101 27/14/102 33/15/103 32/16/104
f 27/14/105 28/17/106 34/18/107 33/15/108
f 28/17/109 29/19/110 35/22/111 34/18/112
f 29/19/113 30/20/114 36/80/115 35/22/116
f 30/20/117 25/23/118 31/81/119 36/80/120
f 5/91/121 4/92/122 3/2/123 6/8/124
f 2/1/125 1/90/126 6/8/127 3/2/128
f 31/24/129 32/16/130 33/15/131 36/21/132
f 34/83/133 35/82/134 36/21/135 33/15/136
f 13/35/137 14/86/138 38/79/139 37/36/140
f 14/25/141 15/26/142 39/27/143 38/28/144
f 15/26/145 16/29/146 40/30/147 39/27/148
f 16/29/149 17/31/150 41/34/151 40/30/152
f 17/31/153 18/32/154 42/33/155 41/34/156
f 18/32/157 13/35/158 37/36/159 42/33/160
f 44/37/161 43/38/162 49/39/163 50/40/164
f 45/41/165 44/37/166 50/40/167 51/42/168
f 46/44/169 45/41/170 51/42/171 52/45/172
f 47/43/173 46/44/174 52/45/175 53/46/176
f 48/78/177 47/43/178 53/46/179 54/77/180
f 43/38/181 48/47/182 54/48/183 49/39/184
f 50/40/185 49/39/186 55/50/187 56/49/188
f 51/42/189 50/40/190 56/49/191 57/53/192
f 52/45/193 51/42/194 57/53/195 58/56/196
f 53/46/197 52/45/198 58/56/199 59/55/200
f 54/77/201 53/46/202 59/55/203 60/76/204
f 49/39/205 54/48/206 60/59/207 55/50/208
f 56/49/209 55/50/210 61/51/211 62/52/212
f 57/53/213 56/49/214 62/52/215 63/54/216
f 58/56/217 57/53/218 63/54/219 64/57/220
f 59/55/221 58/56/222 64/57/223 65/58/224
f 60/76/225 59/55/226 65/58/227 66/75/228
f 55/50/229 60/59/230 66/60/231 61/51/232
f 62/52/233 61/51/234 67/62/235 68/61/236
f 63/54/237 62/52/238 68/61/239 69/65/240
f 64/57/241 63/54/242 69/65/243 70/68/244
f 65/58/245 64/57/246 70/68/247 71/67/248
f 66/75/249 65/58/250 71/67/251 72/73/252
f 61/51/253 66/60/254 72/71/255 67/62/256
f 68/61/257 67/62/258 19/63/259 24/64/260
f 69/65/261 68/61/262 24/64/263 23/66/264
f 70/68/265 69/65/266 23/66/267 22/69/268
f 71/67/269 70/68/270 22/69/271 21/70/272
f 72/73/273 71/67/274 21/70/275 20/74/276
f 67/62/277 72/71/278 20/72/279 19/63/280
