# This file uses meters as units for non-parametric coordinates.

mtllib fence3mNew_01.mtl
g default
v -144.837036 -50.000000 -8.199552
v -154.305054 -50.000000 -8.199553
v -159.039078 -50.000000 -0.000001
v -154.305054 -50.000000 8.199552
v -144.837036 -50.000000 8.199552
v -140.103012 -50.000000 0.000000
v -144.837036 50.000000 -8.199552
v -154.305054 50.000000 -8.199553
v -159.039078 50.000000 -0.000001
v -154.305054 50.000000 8.199552
v -144.837036 50.000000 8.199552
v -140.103012 50.000000 0.000000
vt 0.159973 0.003562
vt 0.180229 0.003538
vt 0.180485 0.217476
vt 0.160229 0.217500
vt 0.139717 0.003586
vt 0.180527 0.252560
vt 0.200485 0.003514
vt 0.099206 0.003635
vt 0.099462 0.217573
vt 0.200741 0.217452
vt 0.119462 0.003611
vt 0.119718 0.217549
vt 0.078950 0.003659
vt 0.079207 0.217597
vt 0.210890 0.234982
vt 0.200783 0.252536
vt 0.170378 0.235030
vt 0.139974 0.217524
vn 0.000000 0.000000 -1.000000
vn 0.000000 0.000000 -1.000000
vn 0.000000 0.000000 -1.000000
vn 0.000000 0.000000 -1.000000
vn -0.866025 0.000000 -0.500001
vn -0.866025 0.000000 -0.500001
vn -0.866025 0.000000 -0.500001
vn -0.866025 0.000000 -0.500001
vn -0.866025 0.000000 0.500001
vn -0.866025 0.000000 0.500001
vn -0.866025 0.000000 0.500001
vn -0.866025 0.000000 0.500001
vn 0.000000 0.000000 1.000000
vn 0.000000 0.000000 1.000000
vn 0.000000 0.000000 1.000000
vn 0.000000 0.000000 1.000000
vn 0.866025 0.000000 0.500001
vn 0.866025 0.000000 0.500001
vn 0.866025 0.000000 0.500001
vn 0.866025 0.000000 0.500001
vn 0.866025 0.000000 -0.500001
vn 0.866025 0.000000 -0.500001
vn 0.866025 0.000000 -0.500001
vn 0.866025 0.000000 -0.500001
vn 0.000000 1.000000 -0.000000
vn 0.000000 1.000000 -0.000000
vn 0.000000 1.000000 -0.000000
vn 0.000000 1.000000 -0.000000
vn 0.000000 1.000000 0.000000
vn 0.000000 1.000000 0.000000
vn 0.000000 1.000000 0.000000
vn 0.000000 1.000000 0.000000
s off
g geo_leftPole_01 grp_fence_3m_new_01
usemtl initialShadingGroup
f 1/11/1 2/5/2 8/18/3 7/12/4
f 2/5/5 3/1/6 9/4/7 8/18/8
f 3/1/9 4/2/10 10/3/11 9/4/12
f 4/2/13 5/7/14 11/10/15 10/3/16
f 5/13/17 6/8/18 12/9/19 11/14/20
f 6/8/21 1/11/22 7/12/23 12/9/24
f 12/15/25 7/16/26 8/6/27 11/10/28
f 9/17/29 10/3/30 11/10/31 8/6/32
g default
v 155.162964 -50.000000 -8.199552
v 145.694946 -50.000000 -8.199553
v 140.960922 -50.000000 -0.000001
v 145.694946 -50.000000 8.199552
v 155.162964 -50.000000 8.199552
v 159.896988 -50.000000 0.000000
v 155.162964 50.000000 -8.199552
v 145.694946 50.000000 -8.199553
v 140.960922 50.000000 -0.000001
v 145.694946 50.000000 8.199552
v 155.162964 50.000000 8.199552
v 159.896988 50.000000 0.000000
vt 0.159973 0.003562
vt 0.180229 0.003538
vt 0.180485 0.217476
vt 0.160229 0.217500
vt 0.139718 0.003586
vt 0.180527 0.252560
vt 0.200485 0.003514
vt 0.099206 0.003635
vt 0.099462 0.217573
vt 0.200741 0.217452
vt 0.119462 0.003611
vt 0.119718 0.217549
vt 0.078950 0.003659
vt 0.079207 0.217597
vt 0.210890 0.234982
vt 0.200783 0.252536
vt 0.170378 0.235030
vt 0.139974 0.217525
vn 0.000000 0.000000 -1.000000
vn 0.000000 0.000000 -1.000000
vn 0.000000 0.000000 -1.000000
vn 0.000000 0.000000 -1.000000
vn -0.866025 0.000000 -0.500001
vn -0.866025 0.000000 -0.500001
vn -0.866025 0.000000 -0.500001
vn -0.866025 0.000000 -0.500001
vn -0.866025 0.000000 0.500001
vn -0.866025 0.000000 0.500001
vn -0.866025 0.000000 0.500001
vn -0.866025 0.000000 0.500001
vn 0.000000 0.000000 1.000000
vn 0.000000 0.000000 1.000000
vn 0.000000 0.000000 1.000000
vn 0.000000 0.000000 1.000000
vn 0.866025 0.000000 0.500001
vn 0.866025 0.000000 0.500001
vn 0.866025 0.000000 0.500001
vn 0.866025 0.000000 0.500001
vn 0.866025 0.000000 -0.500001
vn 0.866025 0.000000 -0.500001
vn 0.866025 0.000000 -0.500001
vn 0.866025 0.000000 -0.500001
vn 0.000000 1.000000 -0.000000
vn 0.000000 1.000000 -0.000000
vn 0.000000 1.000000 -0.000000
vn 0.000000 1.000000 -0.000000
vn 0.000000 1.000000 0.000000
vn 0.000000 1.000000 0.000000
vn 0.000000 1.000000 0.000000
vn 0.000000 1.000000 0.000000
s off
g grp_fence_3m_new_01 geo_rightPole_01
usemtl initialShadingGroup
f 13/29/33 14/23/34 20/36/35 19/30/36
f 14/23/37 15/19/38 21/22/39 20/36/40
f 15/19/41 16/20/42 22/21/43 21/22/44
f 16/20/45 17/25/46 23/28/47 22/21/48
f 17/31/49 18/26/50 24/27/51 23/32/52
f 18/26/53 13/29/54 19/30/55 24/27/56
f 24/33/57 19/34/58 20/24/59 23/28/60
f 21/35/61 22/21/62 23/28/63 20/24/64
g default
v -159.896957 31.017147 13.102325
v 158.880615 31.017147 13.102325
v -159.896957 42.822140 13.102325
v 158.880615 42.822140 13.102325
v -159.896957 42.822140 8.114223
v 158.880615 42.822140 8.114223
v -159.896957 31.017147 8.114223
v 158.880615 31.017147 8.114223
v -23.699112 23.693695 13.102325
v -23.699112 23.693695 8.114223
v -23.699112 35.498688 8.114223
v -23.699112 35.498688 13.102325
vt 0.923881 0.004345
vt 0.915189 0.004324
vt 0.894617 0.004275
vt 0.944454 0.004393
vt 0.913873 0.559845
vt 0.066048 0.014303
vt 0.943138 0.559914
vt 0.893301 0.559796
vt 0.952620 0.226622
vt 0.943927 0.226602
vt 0.923355 0.226553
vt 0.914663 0.226532
vt 0.894091 0.226484
vt 0.059069 0.038719
vt 0.953146 0.004414
vt 0.066089 0.028059
vt 0.061585 0.025093
vt 0.064442 0.009154
vt 0.922566 0.559865
vt 0.951831 0.559935
vt 0.052257 0.012955
vt 0.054564 0.035753
vt 0.053863 0.018104
vn 0.000000 0.000000 1.000000
vn 0.000000 0.000000 1.000000
vn 0.000000 0.000000 1.000000
vn 0.000000 0.000000 1.000000
vn 0.000000 1.000000 0.000000
vn 0.000000 1.000000 0.000000
vn -0.040079 0.999197 0.000000
vn -0.040079 0.999197 0.000000
vn 0.000000 0.000000 -1.000000
vn -0.000000 0.000000 -1.000000
vn 0.000000 0.000000 -1.000000
vn 0.000000 0.000000 -1.000000
vn 0.000000 -1.000000 0.000000
vn 0.000000 -1.000000 0.000000
vn 0.040079 -0.999197 0.000000
vn 0.040079 -0.999197 0.000000
vn 1.000000 0.000000 0.000000
vn 1.000000 0.000000 0.000000
vn 1.000000 0.000000 0.000000
vn 1.000000 0.000000 0.000000
vn -1.000000 0.000000 0.000000
vn -1.000000 0.000000 0.000000
vn -1.000000 0.000000 0.000000
vn -1.000000 0.000000 0.000000
vn -0.053693 -0.998558 0.000000
vn -0.053693 -0.998558 0.000000
vn -0.000000 0.000000 -1.000000
vn -0.000000 0.000000 -1.000000
vn 0.053693 0.998558 0.000000
vn 0.053693 0.998558 0.000000
vn 0.000000 0.000000 1.000000
vn 0.000000 0.000000 1.000000
s 1
g grp_fence_3m_new_01 geo_topRail_01
usemtl initialShadingGroup
f 36/46/65 33/47/66 26/37/67 28/40/68
s 2
f 35/45/69 36/46/70 28/40/71 30/51/72
s 3
f 34/48/73 35/49/74 30/39/75 32/38/76
s 4
f 33/47/77 34/48/78 32/38/79 26/37/80
s off
f 26/53/81 32/52/82 30/50/83 28/58/84
f 31/54/85 25/42/86 27/59/87 29/57/88
s 4
f 31/41/89 34/48/78 33/47/77 25/55/90
s 3
f 29/44/91 35/49/74 34/48/73 31/41/92
s 2
f 27/43/93 36/46/70 35/45/69 29/56/94
s 1
f 25/55/95 33/47/66 36/46/65 27/43/96
g default
v -159.896957 3.639937 13.102325
v 158.880615 3.639937 13.102325
v -159.896957 15.444930 13.102325
v 158.880615 15.444930 13.102325
v -159.896957 15.444930 8.114223
v 158.880615 15.444930 8.114223
v -159.896957 3.639937 8.114223
v 158.880615 3.639937 8.114223
v 31.369583 -0.775217 13.102325
v 31.369583 -0.775217 8.114223
v 31.369583 11.029776 8.114223
v 31.369583 11.029776 13.102325
vt 0.923881 0.004345
vt 0.915189 0.004324
vt 0.894617 0.004275
vt 0.944454 0.004393
vt 0.913873 0.559845
vt 0.066048 0.014303
vt 0.943138 0.559914
vt 0.893301 0.559796
vt 0.952620 0.226622
vt 0.943927 0.226602
vt 0.923355 0.226553
vt 0.914663 0.226532
vt 0.894091 0.226484
vt 0.059069 0.038719
vt 0.953146 0.004414
vt 0.066089 0.028059
vt 0.061585 0.025093
vt 0.064442 0.009154
vt 0.922566 0.559865
vt 0.951831 0.559935
vt 0.052257 0.012955
vt 0.054564 0.035753
vt 0.053863 0.018104
vn 0.000000 0.000000 1.000000
vn 0.000000 0.000000 1.000000
vn 0.000000 0.000000 1.000000
vn 0.000000 0.000000 1.000000
vn 0.000000 1.000000 0.000000
vn 0.000000 1.000000 0.000000
vn -0.034605 0.999401 0.000000
vn -0.034605 0.999401 0.000000
vn 0.000000 0.000000 -1.000000
vn 0.000000 0.000000 -1.000000
vn 0.000000 0.000000 -1.000000
vn 0.000000 0.000000 -1.000000
vn 0.000000 -1.000000 0.000000
vn 0.000000 -1.000000 0.000000
vn 0.034605 -0.999401 0.000000
vn 0.034605 -0.999401 0.000000
vn 1.000000 0.000000 0.000000
vn 1.000000 0.000000 0.000000
vn 1.000000 0.000000 0.000000
vn 1.000000 0.000000 0.000000
vn -1.000000 0.000000 0.000000
vn -1.000000 0.000000 0.000000
vn -1.000000 0.000000 0.000000
vn -1.000000 0.000000 0.000000
vn -0.023078 -0.999734 0.000000
vn -0.023078 -0.999734 0.000000
vn 0.000000 0.000000 -1.000000
vn 0.000000 0.000000 -1.000000
vn 0.023078 0.999734 0.000000
vn 0.023078 0.999734 0.000000
vn 0.000000 0.000000 1.000000
vn 0.000000 0.000000 1.000000
s 1
g grp_fence_3m_new_01 geo_midRail_01
usemtl initialShadingGroup
f 48/69/97 45/70/98 38/60/99 40/63/100
s 2
f 47/68/101 48/69/102 40/63/103 42/74/104
s 3
f 46/71/105 47/72/106 42/62/107 44/61/108
s 4
f 45/70/109 46/71/110 44/61/111 38/60/112
s off
f 38/76/113 44/75/114 42/73/115 40/81/116
f 43/77/117 37/65/118 39/82/119 41/80/120
s 4
f 43/64/121 46/71/110 45/70/109 37/78/122
s 3
f 41/67/123 47/72/106 46/71/105 43/64/124
s 2
f 39/66/125 48/69/102 47/68/101 41/79/126
s 1
f 37/78/127 45/70/98 48/69/97 39/66/128
g default
v -159.896957 -22.202219 13.102325
v 158.880615 -22.202219 13.102325
v -159.896957 -10.397226 13.102325
v 158.880615 -10.397226 13.102325
v -159.896957 -10.397226 8.114223
v 158.880615 -10.397226 8.114223
v -159.896957 -22.202219 8.114223
v 158.880615 -22.202219 8.114223
v -46.981033 -19.432152 13.102325
v -46.981033 -19.432152 8.114223
v -46.981033 -7.627159 8.114223
v -46.981033 -7.627159 13.102325
vt 0.923881 0.004345
vt 0.915189 0.004324
vt 0.894617 0.004275
vt 0.944454 0.004393
vt 0.913873 0.559845
vt 0.066048 0.014303
vt 0.943138 0.559914
vt 0.893301 0.559796
vt 0.952620 0.226622
vt 0.943927 0.226602
vt 0.923355 0.226553
vt 0.914663 0.226532
vt 0.894091 0.226484
vt 0.059069 0.038719
vt 0.953146 0.004414
vt 0.066089 0.028059
vt 0.061585 0.025093
vt 0.064442 0.009154
vt 0.922566 0.559865
vt 0.951831 0.559935
vt 0.052257 0.012955
vt 0.054564 0.035753
vt 0.053863 0.018104
vn 0.000000 0.000000 1.000000
vn 0.000000 0.000000 1.000000
vn 0.000000 0.000000 1.000000
vn 0.000000 0.000000 1.000000
vn 0.000000 1.000000 0.000000
vn 0.000000 1.000000 0.000000
vn 0.013455 0.999910 0.000000
vn 0.013455 0.999910 0.000000
vn 0.000000 0.000000 -1.000000
vn 0.000000 0.000000 -1.000000
vn 0.000000 0.000000 -1.000000
vn 0.000000 0.000000 -1.000000
vn 0.000000 -1.000000 0.000000
vn 0.000000 -1.000000 0.000000
vn -0.013455 -0.999910 0.000000
vn -0.013455 -0.999910 0.000000
vn 1.000000 0.000000 0.000000
vn 1.000000 0.000000 0.000000
vn 1.000000 0.000000 0.000000
vn 1.000000 0.000000 0.000000
vn -1.000000 0.000000 0.000000
vn -1.000000 0.000000 0.000000
vn -1.000000 0.000000 0.000000
vn -1.000000 0.000000 0.000000
vn 0.024525 -0.999699 0.000000
vn 0.024525 -0.999699 0.000000
vn 0.000000 0.000000 -1.000000
vn 0.000000 0.000000 -1.000000
vn -0.024525 0.999699 0.000000
vn -0.024525 0.999699 0.000000
vn 0.000000 0.000000 1.000000
vn 0.000000 0.000000 1.000000
s 1
g grp_fence_3m_new_01 geo_bottomRail_01
usemtl initialShadingGroup
f 60/92/129 57/93/130 50/83/131 52/86/132
s 2
f 59/91/133 60/92/134 52/86/135 54/97/136
s 3
f 58/94/137 59/95/138 54/85/139 56/84/140
s 4
f 57/93/141 58/94/142 56/84/143 50/83/144
s off
f 50/99/145 56/98/146 54/96/147 52/104/148
f 55/100/149 49/88/150 51/105/151 53/103/152
s 4
f 55/87/153 58/94/142 57/93/141 49/101/154
s 3
f 53/90/155 59/95/138 58/94/137 55/87/156
s 2
f 51/89/157 60/92/134 59/91/133 53/102/158
s 1
f 49/101/159 57/93/130 60/92/129 51/89/160
